HIERARCHY
ROOT Hips
{
	OFFSET 0.00 0.00 0.00
	CHANNELS 6 Xposition Yposition Zposition Xrotation Yrotation Zrotation
	JOINT Spine
	{
		OFFSET 0.00000 6.11665 0.00000
		CHANNELS 3 Xrotation Yrotation Zrotation
		JOINT Head
		{
			OFFSET 0.00000 15.22556 0.00000
			CHANNELS 3 Xrotation Yrotation Zrotation
			End Site
			{
				OFFSET 0.00000 4.52755 0.00000
			}
		}
		JOINT LeftShoulder
		{
			OFFSET 0.00000 8.97765 0.00000
			CHANNELS 3 Xrotation Yrotation Zrotation
			JOINT LeftArm
			{
				OFFSET 7.11013 0.00000 0.00000
				CHANNELS 3 Xrotation Yrotation Zrotation
				JOINT LeftForeArm
				{
					OFFSET 10.39834 0.00000 0.00000
					CHANNELS 3 Yrotation Zrotation Xrotation
					JOINT LeftHand
					{
						OFFSET 8.88900 0.00000 0.00000
						CHANNELS 3 Xrotation Yrotation Zrotation
						JOINT LeftHandThumb1
						{
							OFFSET 0.00000 0.00000 0.00000
							CHANNELS 3 Xrotation Zrotation Yrotation
							End Site
							{
								OFFSET 0.00000 0.00000 3.93700
							}
						}
						End Site
						{
							OFFSET 3.93700 0.00000 0.00000
						}
					}
				}
			}
		}
		JOINT RightShoulder
		{
			OFFSET 0.00000 8.97765 0.00000
			CHANNELS 3 Xrotation Yrotation Zrotation
			JOINT RightArm
			{
				OFFSET -7.11013 0.00000 0.00000
				CHANNELS 3 Xrotation Yrotation Zrotation
				JOINT RightForeArm
				{
					OFFSET -10.39834 0.00000 0.00000
					CHANNELS 3 Yrotation Zrotation Xrotation
					JOINT RightHand
					{
						OFFSET -8.88900 0.00000 0.00000
						CHANNELS 3 Xrotation Yrotation Zrotation
						JOINT RightHandThumb1
						{
							OFFSET 0.00000 0.00000 0.00000
							CHANNELS 3 Xrotation Zrotation Yrotation
							End Site
							{
								OFFSET 0.00000 0.00000 3.93700
							}
						}
						End Site
						{
							OFFSET -3.93700 0.00000 0.00000
						}
					}
				}
			}
		}
	}
	JOINT LeftUpLeg
	{
		OFFSET 4.71176 0.00000 0.00000
		CHANNELS 3 Xrotation Yrotation Zrotation
		JOINT LeftLeg
		{
			OFFSET 0.00000 -15.51045 0.00000
			CHANNELS 3 Xrotation Yrotation Zrotation
			JOINT LeftFoot
			{
				OFFSET 0.00000 -14.85806 0.00000
				CHANNELS 3 Xrotation Yrotation Zrotation
				JOINT LeftToeBase
				{
					OFFSET 0.00000 -1.32744 4.95409
					CHANNELS 3 Xrotation Yrotation Zrotation
					End Site
					{
						OFFSET 0.00000 0.00000 2.95275
					}
				}
			}
		}
	}
	JOINT RightUpLeg
	{
		OFFSET -4.71176 0.00000 0.00000
		CHANNELS 3 Xrotation Yrotation Zrotation
		JOINT RightLeg
		{
			OFFSET 0.00000 -15.51045 0.00000
			CHANNELS 3 Xrotation Yrotation Zrotation
			JOINT RightFoot
			{
				OFFSET 0.00000 -14.85806 0.00000
				CHANNELS 3 Xrotation Yrotation Zrotation
				JOINT RightToeBase
				{
					OFFSET 0.00000 -1.32744 4.95409
					CHANNELS 3 Xrotation Yrotation Zrotation
					End Site
					{
						OFFSET 0.00000 0.00000 2.95275
					}
				}
			}
		}
	}
}
MOTION
Frames:	22
Frame Time: 0.008333
-6.3687 32.2654 -4.6130 -4.7112 19.5052 6.1796 3.5776 -10.9328 -1.8434 25.8182 9.0018 -3.6263 9.9355 23.8459 23.2687 -10.0289 -17.3109 -90.9368 -21.1640 -0.0000 16.1491 -0.2730 -18.2374 -0.8722 32.8623 0.0000 24.3270 -5.1566 -15.9791 -28.6098 5.7488 -25.7571 78.9960 116.8324 -0.0000 -16.9182 -0.8160 9.2796 5.0478 33.1476 -0.0000 -26.2537 -54.8148 26.8430 36.8179 84.5058 -0.0000 -0.0000 31.5332 28.4079 -22.9604 19.4654 -0.0000 -0.0000 10.8363 -2.4384 6.2893 -2.9666 0.0000 -0.0000 -12.6608 -21.1510 5.4448 21.7942 -0.0000 -0.0000
-6.3740 32.2645 -4.6110 -4.7000 19.4974 6.1846 3.5641 -10.9339 -1.8552 25.7952 8.9706 -3.6288 9.9364 23.8510 23.2562 -10.0422 -17.3133 -90.9275 -21.1731 0.0000 16.2395 -0.0902 -18.3590 -0.2865 32.8623 0.0000 24.3270 -5.1955 -15.9479 -28.6068 5.7430 -25.8128 78.9899 116.7680 -0.0000 -16.8263 -0.8476 9.2493 5.2590 33.1476 -0.0000 -26.2537 -54.9656 27.0348 36.9645 84.4994 -0.0000 -0.0000 31.5391 28.4077 -22.9362 19.5418 -0.0000 -0.0000 10.8277 -2.4612 6.2917 -2.9714 0.0000 -0.0000 -12.6887 -21.1966 5.5327 21.9471 -0.0000 -0.0000
-6.3802 32.2637 -4.6081 -4.6988 19.4929 6.1873 3.5576 -10.9480 -1.8619 25.7808 8.9424 -3.6379 9.9595 23.8597 23.2509 -10.0633 -17.2644 -90.9220 -21.2114 -0.0000 16.3263 -0.3318 -18.1265 -1.0665 32.8623 0.0000 24.3270 -5.2440 -15.8959 -28.6054 5.7476 -25.8681 79.0120 116.7010 0.0000 -16.7881 -0.8381 9.3246 5.1589 33.1476 -0.0000 -26.2537 -55.0867 27.1907 37.0937 84.4873 -0.0000 -0.0000 31.5522 28.3698 -22.8874 19.5784 -0.0000 -0.0000 10.8083 -2.4274 6.2968 -2.9372 0.0000 -0.0000 -12.7136 -21.2326 5.5406 21.9687 -0.0000 -0.0000
-6.3860 32.2630 -4.6061 -4.6875 19.5154 6.1878 3.5423 -10.9821 -1.8615 25.7538 8.8985 -3.6548 10.0019 23.8905 23.2167 -10.1405 -17.3366 -90.9154 -21.1711 0.0000 16.3421 -0.1712 -18.2355 -0.5472 32.8623 0.0000 24.3270 -5.2758 -15.8493 -28.6178 5.7635 -25.9271 79.0406 116.6399 0.0000 -16.7758 -0.8347 9.3489 5.1248 33.1476 -0.0000 -26.2537 -55.2022 27.3216 37.1825 84.4643 -0.0000 -0.0000 31.5580 28.3093 -22.7914 19.3483 -0.0000 -0.0000 10.7779 -2.3830 6.3042 -2.9073 0.0000 -0.0000 -12.7533 -21.2951 5.5151 22.0235 -0.0000 -0.0000
-6.3913 32.2631 -4.6026 -4.6890 19.5464 6.1937 3.5313 -11.0210 -1.8609 25.7421 8.8670 -3.6767 9.9973 23.8774 23.2180 -10.1530 -17.3605 -90.9198 -21.1577 0.0000 16.3155 -0.1724 -18.2684 -0.5500 32.8623 0.0000 24.3270 -5.2621 -15.8167 -28.6368 5.7563 -25.9961 79.0845 116.5795 0.0000 -16.7169 -0.8222 9.3707 5.0372 33.1476 -0.0000 -26.2537 -55.2854 27.4379 37.2456 84.4407 -0.0000 -0.0000 31.4675 28.3469 -22.9069 19.6934 -0.0000 -0.0000 10.7662 -2.3608 6.3114 -2.8809 0.0000 -0.0000 -12.7538 -21.3353 5.5524 22.3688 -0.0000 -0.0000
-6.3946 32.2631 -4.5994 -4.6917 19.5944 6.2169 3.5227 -11.0911 -1.8685 25.7145 8.8422 -3.7207 9.9894 23.9009 23.2068 -10.1739 -17.3616 -90.9101 -21.1548 0.0000 16.3643 -0.3669 -18.2539 -1.1714 32.8623 0.0000 24.3270 -5.2814 -15.7513 -28.6643 5.7959 -26.0590 79.1209 116.5107 0.0000 -16.7184 -0.7894 9.6090 4.7188 33.1476 -0.0000 -26.2537 -55.3290 27.5258 37.2440 84.4052 -0.0000 -0.0000 31.4833 28.3751 -22.9666 19.4892 -0.0000 -0.0000 10.7585 -2.3390 6.3036 -2.8651 0.0000 -0.0000 -12.7955 -21.3998 5.5030 22.0024 -0.0000 -0.0000
-6.3987 32.2636 -4.5975 -4.6979 19.6708 6.2334 3.5197 -11.1452 -1.8662 25.6832 8.7989 -3.7409 10.0024 23.8863 23.1911 -10.2400 -17.4563 -90.9213 -21.0859 -0.0000 16.1915 -0.0585 -18.5656 -0.1838 32.8623 0.0000 24.3270 -5.2835 -15.7365 -28.6945 5.8077 -26.1218 79.1546 116.4289 0.0000 -16.7290 -0.7665 9.7091 4.5357 33.1476 -0.0000 -26.2537 -55.3648 27.5882 37.2218 84.3586 -0.0000 -0.0000 31.4661 28.4138 -22.9407 19.2427 -0.0000 -0.0000 10.7560 -2.3625 6.3110 -2.8488 0.0000 -0.0000 -12.8149 -21.4523 5.4606 21.9707 -0.0000 -0.0000
-6.4013 32.2638 -4.5942 -4.7262 19.7418 6.2577 3.5395 -11.2171 -1.8587 25.6527 8.7665 -3.7792 9.9729 23.8538 23.1894 -10.2203 -17.4402 -90.9262 -21.1036 0.0000 16.2870 -0.1200 -18.4559 -0.3790 32.8623 0.0000 24.3270 -5.3035 -15.6874 -28.7260 5.8300 -26.1969 79.1659 116.3654 0.0000 -16.6838 -0.7356 9.6781 4.3676 33.1476 -0.0000 -26.2537 -55.3639 27.6392 37.1895 84.3190 -0.0000 -0.0000 31.4051 28.4736 -22.9150 19.1710 -0.0000 -0.0000 10.7814 -2.3924 6.3153 -2.8415 0.0000 -0.0000 -12.8337 -21.5008 5.4576 22.0412 -0.0000 -0.0000
-6.4036 32.2646 -4.5898 -4.7512 19.8109 6.2838 3.5493 -11.2678 -1.8524 25.6296 8.7393 -3.8134 9.9502 23.8261 23.1797 -10.2053 -17.5261 -90.9106 -21.1436 -0.0000 16.1414 -0.2597 -18.3572 -0.8247 32.8623 0.0000 24.3270 -5.3222 -15.6494 -28.7582 5.8554 -26.2762 79.1687 116.2970 0.0000 -16.7491 -0.6472 9.5899 3.8790 33.1476 -0.0000 -26.2537 -55.3602 27.6929 37.1607 84.2847 -0.0000 -0.0000 31.3506 28.5662 -22.9292 19.0779 -0.0000 -0.0000 10.8146 -2.4514 6.3193 -2.8431 0.0000 -0.0000 -12.8253 -21.5070 5.4218 21.8655 -0.0000 -0.0000
-6.4048 32.2644 -4.5848 -4.7786 19.8832 6.3199 3.5569 -11.3183 -1.8548 25.6003 8.7001 -3.8413 9.9817 23.8358 23.1647 -10.2791 -17.5614 -90.9282 -21.1350 0.0000 16.1334 -0.2570 -18.3064 -0.8183 32.8623 0.0000 24.3270 -5.3345 -15.6465 -28.7948 5.8426 -26.3320 79.1655 116.2084 0.0000 -16.5906 -0.7206 9.7001 4.2692 33.1476 -0.0000 -26.2537 -55.3456 27.7466 37.1255 84.2541 -0.0000 -0.0000 31.3383 28.6547 -22.8985 18.9216 -0.0000 -0.0000 10.8601 -2.5472 6.3159 -2.8545 0.0000 -0.0000 -12.8394 -21.5023 5.4547 21.9315 -0.0000 -0.0000
-6.4071 32.2658 -4.5784 -4.7967 19.9436 6.3707 3.5372 -11.3360 -1.8988 25.6066 8.6595 -3.8248 9.8809 23.7320 23.1984 -10.1482 -17.5368 -90.9088 -21.1774 0.0000 16.2158 -0.0883 -18.2760 -0.2817 32.8623 0.0000 24.3270 -5.3225 -15.6537 -28.7820 5.8216 -26.3938 79.1263 116.1276 -0.0000 -16.5096 -0.7514 9.7143 4.4447 33.1476 -0.0000 -26.2537 -55.3254 27.8239 37.1008 84.2188 -0.0000 -0.0000 31.3012 28.7458 -22.8742 19.1138 -0.0000 -0.0000 10.9072 -2.6621 6.2969 -2.8795 0.0000 -0.0000 -12.8314 -21.4052 5.3017 21.6713 -0.0000 -0.0000
-6.4092 32.2650 -4.5701 -4.8299 19.9865 6.3960 3.5492 -11.3522 -1.8930 25.5899 8.6339 -3.8389 9.8680 23.7215 23.2073 -10.1546 -17.5206 -90.9257 -21.1999 -0.0000 16.1370 -0.2035 -18.2691 -0.6490 32.8623 0.0000 24.3270 -5.3602 -15.6300 -28.8040 5.8360 -26.4593 79.0883 116.0536 0.0000 -16.4861 -0.7537 9.6755 4.4758 33.1476 -0.0000 -26.2537 -55.3076 27.8644 37.1263 84.2186 -0.0000 -0.0000 31.2871 28.8107 -22.9674 19.2106 -0.0000 -0.0000 10.9808 -2.7654 6.3008 -2.9286 0.0000 -0.0000 -12.8421 -21.4115 5.4244 21.9311 -0.0000 -0.0000
-6.4121 32.2641 -4.5624 -4.8467 20.0194 6.4078 3.5414 -11.3541 -1.8803 25.5862 8.6180 -3.8432 9.8590 23.7162 23.2124 -10.1664 -17.5292 -90.9423 -21.2209 -0.0000 16.1384 -0.2053 -18.2973 -0.6538 32.8623 0.0000 24.3270 -5.3935 -15.5921 -28.8050 5.8502 -26.5529 79.0167 115.9973 -0.0000 -16.5276 -0.7746 9.5497 4.6592 33.1476 -0.0000 -26.2537 -55.2975 27.8856 37.1599 84.2265 -0.0000 -0.0000 31.2739 28.7564 -22.9527 19.2019 -0.0000 -0.0000 11.0394 -2.8722 6.3136 -2.9703 0.0000 -0.0000 -12.8317 -21.3501 5.4787 21.9001 -0.0000 -0.0000
-6.4152 32.2631 -4.5550 -4.8465 20.0307 6.4162 3.5134 -11.3295 -1.8762 25.5869 8.5835 -3.8431 9.8487 23.7050 23.2355 -10.1975 -17.4436 -90.9859 -21.1775 -0.0000 16.2010 -0.2191 -18.4159 -0.6936 32.8623 0.0000 24.3270 -5.4117 -15.5616 -28.7848 5.8420 -26.6562 78.9363 115.9312 0.0000 -16.6028 -0.7838 9.5590 4.7097 33.1476 -0.0000 -26.2537 -55.3051 27.9214 37.2216 84.2341 -0.0000 -0.0000 31.2753 28.6646 -22.8694 19.0606 -0.0000 -0.0000 11.0741 -2.9380 6.3211 -3.0022 0.0000 -0.0000 -12.8194 -21.3062 5.4980 21.8368 -0.0000 -0.0000
-6.4193 32.2621 -4.5467 -4.8544 20.0367 6.4152 3.4995 -11.3181 -1.8475 25.5945 8.6019 -3.8545 9.8240 23.7097 23.2452 -10.1997 -17.4574 -91.0108 -21.1632 0.0000 16.1840 -0.1843 -18.4348 -0.5828 32.8623 0.0000 24.3270 -5.4433 -15.5119 -28.7933 5.8697 -26.7454 78.8976 115.8661 0.0000 -16.7243 -0.7513 9.7198 4.4413 33.1476 -0.0000 -26.2537 -55.2987 27.9309 37.2934 84.2464 -0.0000 -0.0000 31.2875 28.5707 -22.7995 18.7761 -0.0000 -0.0000 11.1102 -2.9863 6.3426 -3.0137 0.0000 -0.0000 -12.7685 -21.1956 5.4272 21.5690 -0.0000 -0.0000
-6.4218 32.2622 -4.5414 -4.8308 20.0066 6.4231 3.4520 -11.2687 -1.8372 25.6066 8.5955 -3.8860 9.8263 23.7099 23.2347 -10.1947 -17.4355 -91.0250 -21.1876 0.0000 16.1766 -0.1811 -18.4508 -0.5723 32.8623 0.0000 24.3270 -5.4790 -15.4625 -28.7896 5.8952 -26.7795 78.8636 115.8307 0.0000 -16.5014 -0.7261 9.7912 4.2619 33.1476 -0.0000 -26.2537 -55.3017 27.9694 37.3661 84.2430 -0.0000 -0.0000 31.2989 28.5195 -22.8057 18.7315 -0.0000 -0.0000 11.0912 -2.9731 6.3283 -3.0066 0.0000 -0.0000 -12.7869 -21.1727 5.4158 21.7145 -0.0000 -0.0000
-6.4253 32.2619 -4.5352 -4.8109 19.9788 6.4258 3.4074 -11.2209 -1.8251 25.6134 8.5999 -3.9056 9.8253 23.7332 23.2289 -10.1925 -17.5155 -91.0289 -21.2427 -0.0000 16.1175 -0.1590 -18.3646 -0.5046 32.8623 0.0000 24.3270 -5.4796 -15.4486 -28.7793 5.8636 -26.9148 78.8168 115.7671 0.0000 -16.8756 -0.7926 9.8545 4.6214 33.1476 -0.0000 -26.2537 -55.3130 28.0080 37.4576 84.2367 -0.0000 -0.0000 31.2974 28.5358 -22.7836 18.7078 -0.0000 -0.0000 11.0765 -2.9349 6.3195 -3.0096 0.0000 -0.0000 -12.8306 -21.2539 5.5248 21.8600 -0.0000 -0.0000
-6.4293 32.2615 -4.5298 -4.7745 19.9498 6.4150 3.3431 -11.1902 -1.8034 25.6287 8.6455 -3.9281 9.8279 23.7443 23.2319 -10.1798 -17.4684 -91.0504 -21.2686 0.0000 16.1179 -0.1854 -18.3481 -0.5889 32.8623 0.0000 24.3270 -5.4650 -15.4252 -28.7786 5.8392 -26.9416 78.8056 115.7324 0.0000 -16.8226 -0.7613 9.8778 4.4295 33.1476 -0.0000 -26.2537 -55.3231 28.0173 37.5385 84.2440 -0.0000 -0.0000 31.2009 28.5952 -22.8940 19.1804 -0.0000 -0.0000 11.0301 -2.8947 6.3237 -2.9687 0.0000 -0.0000 -12.8245 -21.2077 5.4046 21.6359 -0.0000 -0.0000
-6.4335 32.2615 -4.5238 -4.7492 19.9173 6.4091 3.2948 -11.1375 -1.7876 25.6332 8.6564 -3.9312 9.8593 23.7585 23.2284 -10.2102 -17.4283 -91.0778 -21.2825 0.0000 16.1346 -0.1949 -18.3180 -0.6201 32.8623 0.0000 24.3270 -5.4854 -15.4141 -28.7781 5.8523 -26.8867 78.8047 115.7354 -0.0000 -16.4160 -0.6663 9.8982 3.8703 33.1476 -0.0000 -26.2537 -55.3281 28.0322 37.6197 84.2452 -0.0000 -0.0000 31.1215 28.6401 -22.7799 19.1783 -0.0000 -0.0000 10.9963 -2.8506 6.3170 -2.9408 0.0000 -0.0000 -12.8633 -21.2874 5.6228 21.8405 -0.0000 -0.0000
-6.4356 32.2617 -4.5159 -4.7376 19.8894 6.4161 3.2510 -11.1027 -1.7756 25.6535 8.6815 -3.9297 9.8645 23.7425 23.2315 -10.1819 -17.3485 -91.1100 -21.3090 0.0000 16.1580 -0.1767 -18.2771 -0.5635 32.8623 0.0000 24.3270 -5.4809 -15.4258 -28.7870 5.8281 -26.8525 78.8103 115.7482 0.0000 -16.2660 -0.6415 9.8218 3.7553 33.1476 -0.0000 -26.2537 -55.2887 28.0395 37.6839 84.2440 -0.0000 -0.0000 31.0076 28.7041 -22.8635 19.4789 -0.0000 -0.0000 10.9876 -2.8450 6.3110 -2.9164 0.0000 -0.0000 -12.8930 -21.2822 5.5951 21.9054 -0.0000 -0.0000
-6.4386 32.2619 -4.5074 -4.7374 19.8738 6.4210 3.2175 -11.1067 -1.7542 25.6740 8.7369 -3.9641 9.9184 23.7758 23.2185 -10.2103 -17.3030 -91.1338 -21.3214 -0.0000 16.1861 -0.2003 -18.2562 -0.6394 32.8623 0.0000 24.3270 -5.4873 -15.4084 -28.8143 5.8076 -26.8693 78.8300 115.7458 0.0000 -16.3621 -0.7164 9.7666 4.2158 33.1476 -0.0000 -26.2537 -55.2512 28.0449 37.7484 84.2390 -0.0000 -0.0000 30.9293 28.7185 -22.7651 19.5867 -0.0000 -0.0000 11.0017 -2.8719 6.3120 -2.9095 0.0000 -0.0000 -12.8906 -21.2364 5.6329 21.9292 -0.0000 -0.0000
-6.4421 32.2617 -4.4974 -4.7462 19.8503 6.4303 3.1955 -11.1034 -1.7386 25.6882 8.7946 -3.9800 9.9524 23.8034 23.2048 -10.2223 -17.2985 -91.1384 -21.3243 0.0000 16.1780 -0.2157 -18.3027 -0.6870 32.8623 0.0000 24.3270 -5.4988 -15.3940 -28.8584 5.8088 -26.8085 78.8856 115.7601 -0.0000 -16.2942 -0.7223 9.7412 4.2611 33.1476 -0.0000 -26.2537 -55.2127 28.0592 37.8349 84.2342 -0.0000 -0.0000 30.8881 28.7612 -22.6912 19.5586 -0.0000 -0.0000 11.0235 -2.9044 6.3163 -2.8946 0.0000 -0.0000 -12.8978 -21.1809 5.6395 21.8670 -0.0000 -0.0000
